<svg width="719" height="361" xmlns="http://www.w3.org/2000/svg">

 <g>
  <title>background</title>
  <rect fill="none" id="canvas_background" height="402" width="582" y="-1" x="-1"/>
 </g>
 <g>
  <title>Layer 1</title>
  <g id="svg_1">
   <path fill="#ffffff" id="svg_2" d="m86.2,207.3l0,-29.3c0,-22.3 5.7,-38.8 17,-49.5c11.4,-10.7 26.9,-16 46.6,-16c19.3,0 34.4,4.9 45.3,14.8c10.9,9.9 16.3,23.5 16.3,41l0,3l-35.6,0l0,-1.8c0,-7.4 -2.3,-13.3 -6.8,-17.5c-4.5,-4.2 -10.7,-6.3 -18.6,-6.3c-18.1,0 -27.2,11 -27.2,32.9l0,28.4c0,11.9 2.4,20.3 7.1,25.4c4.7,5 11.4,7.5 20.1,7.5c7.8,0 14,-2 18.6,-6c4.5,-4 6.8,-9.7 6.8,-16.9l0,-1.8l35.6,0l0,2.1c0,17.3 -5.4,30.9 -16.3,40.9c-10.9,10 -26,14.9 -45.3,14.9c-19.7,0 -35.3,-5.3 -46.6,-16c-11.4,-10.7 -17,-27.3 -17,-49.8z"/>
   <path fill="#ffffff" id="svg_3" d="m275.7,208.2c0,11.7 2.6,20 7.8,25c5.2,5 12.7,7.5 22.3,7.5c7.4,0 13.3,-1.6 17.5,-4.7c4.2,-3.1 6.5,-7.5 6.9,-13.1l0.3,-0.9l35.6,0l0,1.5c0,14.9 -5.5,26.9 -16.6,35.9c-11.1,9.1 -26.2,13.6 -45.3,13.6c-20.1,0 -36.1,-5.8 -48,-17.4s-17.8,-29.4 -17.8,-53.6l0,-19c0,-23.5 5.7,-41.2 17.2,-53c11.5,-11.8 27.3,-17.7 47.4,-17.7c19.7,0 35.4,5.9 46.9,17.8c11.6,11.9 17.4,29.5 17.4,52.8l0,21.1l-91.7,0l0,4.2l0.1,0zm0,-30.8l0,0.9l54.3,0l0,-3.9c0,-19.9 -9,-29.9 -26.9,-29.9c-8.9,0 -15.6,2.5 -20.4,7.5c-4.7,5.1 -7,13.6 -7,25.4z"/>
   <path fill="#ffffff" id="svg_4" d="m433.8,114.4l0,14.2c4.6,-5.2 10.2,-9.2 16.8,-11.9c6.5,-2.7 13.3,-4.1 20.4,-4.1c16.1,0 28.6,5 37.4,15.1c8.8,10.1 13.3,23.8 13.3,41.3l0,102.3l-37.4,0l0,-97.8c0,-8.9 -2.2,-15.7 -6.6,-20.5c-4.4,-4.8 -10.4,-7.2 -17.8,-7.2c-7.2,0 -13.2,2.4 -18,7.2c-4.7,4.8 -7.1,11.7 -7.1,20.5l0,97.8l-37.4,0l0,-156.9l36.4,0z"/>
   <path fill="#ffffff" id="svg_5" d="m602.8,223.6c0,10.7 5.1,16 15.4,16l11.8,0l0,31.7l-17.8,0c-14.3,0 -25.6,-4.1 -33.9,-12.2c-8.3,-8.1 -12.5,-19.2 -12.5,-33l0,-85.4l-21.8,0l0,-26.3l21.7,0l0,-30.8l37.1,-13l0,43.8l30.2,0l0,26.3l-30.2,0l0,82.9z"/>
  </g>
  <g id="svg_6">
   <g id="svg_7">
    <rect fill="#ffffff" id="svg_8" height="33.1" width="43.8" transform="matrix(0.3108,-0.9505,0.9505,0.3108,1.5829,249.5664) " y="107.2" x="151"/>
   </g>
   <g id="svg_9">
    <rect fill="#ffffff" id="svg_10" height="33.1" width="43.8" transform="matrix(0.3108,-0.9505,0.9505,0.3108,-162.9242,302.5093) " y="247.1" x="105.2"/>
   </g>
  </g>
 </g>
</svg>