<svg xmlns="http://www.w3.org/2000/svg" x="0px" y="0px"
width="19" height="19"
viewBox="0 0 172 172"
style=" fill:#000000;"><g fill="none" fill-rule="nonzero" stroke="none" stroke-width="1" stroke-linecap="butt" stroke-linejoin="miter" stroke-miterlimit="10" stroke-dasharray="" stroke-dashoffset="0" font-family="none" font-weight="none" font-size="none" text-anchor="none" style="mix-blend-mode: normal"><path d="M0,172v-172h172v172z" fill="none"></path><g fill="#ffffff"><path d="M145.50512,40.076c-2.32544,-3.51224 -5.61752,-6.19888 -9.52192,-7.76064c-8.47616,-3.39872 -15.76552,-5.66912 -22.28776,-6.9488c-4.5752,-0.8944 -9.10568,1.35536 -11.2832,5.59344l-0.54352,1.05952c-4.82976,-0.5332 -9.9588,-0.71208 -15.79992,-0.56416c-5.98904,-0.14448 -11.13528,0.03096 -15.97192,0.56416l-0.54008,-1.05952c-2.17752,-4.23808 -6.71488,-6.4844 -11.27976,-5.59c-6.52224,1.27624 -13.81504,3.54664 -22.28776,6.9488c-3.90096,1.56176 -7.19304,4.24496 -9.52192,7.76064c-16.24024,24.53064 -22.60424,50.99112 -19.4532,80.89848c0.11008,1.0492 0.69488,1.98832 1.58584,2.54904c12.49408,7.8776 23.306,13.27152 34.02504,16.97984c4.48232,1.5652 9.45312,-0.18576 12.09848,-4.22776l4.71624,-7.22744c-3.75648,-1.41728 -7.42352,-3.096 -10.9392,-5.10152c-1.64776,-0.93912 -2.22224,-3.04096 -1.28312,-4.68872c0.93912,-1.65464 3.04096,-2.236 4.69216,-1.28312c10.46104,5.96496 22.28776,9.11944 34.20048,9.11944c11.91272,0 23.73944,-3.15448 34.20048,-9.11944c1.64776,-0.95288 3.7496,-0.37152 4.69216,1.28312c0.93912,1.64776 0.36464,3.7496 -1.28312,4.68872c-3.63264,2.07432 -7.4304,3.8012 -11.32104,5.24256l4.85384,7.23088c1.99864,2.9756 5.2976,4.66808 8.69632,4.66808c1.10768,0 2.22568,-0.18232 3.31272,-0.55384c10.75,-3.71176 21.58256,-9.11256 34.10416,-17.00736c0.89096,-0.56072 1.47576,-1.50328 1.58584,-2.54904c3.15792,-29.9108 -3.20608,-56.37472 -19.44632,-80.90536zM64.01152,99.70152c-6.62544,0 -12.07784,-6.97976 -12.07784,-15.4628c0,-8.48304 5.4524,-15.4628 12.07784,-15.4628c6.62544,0 12.07784,6.97976 12.07784,15.4628c0,8.48304 -5.4524,15.4628 -12.07784,15.4628zM108.70744,99.61208c-6.56352,0 -11.96432,-7.02104 -11.96432,-15.55568c0,-8.53464 5.4008,-15.55568 11.96432,-15.55568c6.56352,0 11.96432,7.02104 11.96432,15.55568c0,8.53464 -5.4008,15.55568 -11.96432,15.55568z"></path></g></g></svg>