<svg xmlns="http://www.w3.org/2000/svg" x="0px" y="0px"
width="21" height="21"
viewBox="0 0 172 172"
style=" fill:#000000;"><g fill="none" fill-rule="nonzero" stroke="none" stroke-width="1" stroke-linecap="butt" stroke-linejoin="miter" stroke-miterlimit="10" stroke-dasharray="" stroke-dashoffset="0" font-family="none" font-weight="none" font-size="none" text-anchor="none" style="mix-blend-mode: normal"><path d="M0,172v-172h172v172z" fill="none"></path><g fill="#ffffff"><path d="M137.6,22.93333h-103.2c-6.33533,0 -11.46667,5.13133 -11.46667,11.46667v103.2c0,6.33533 5.13133,11.46667 11.46667,11.46667h103.2c6.33533,0 11.46667,-5.13133 11.46667,-11.46667v-103.2c0,-6.33533 -5.13133,-11.46667 -11.46667,-11.46667zM129.2408,120.4h-34.0044v-1.9092l7.9636,-7.00613v-39.99l-19.5564,48.90533h-3.05587l-21.82107,-49.28947v34.8988l9.976,12.48147v1.9092h-25.98347v-1.9092l10.31427,-12.48147v-41.5208l-9.1676,-11.46093c0,0 0,-1.65693 0,-1.39893h25.08907l19.4876,42.1572l16.81013,-42.1572h23.81627v1.39893l-8.70893,7.32147v51.1356l8.8408,7.00613z"></path></g></g></svg>